<svg width="800" height="400" viewBox="0 0 800 400" xmlns="http://www.w3.org/2000/svg"><defs><pattern id="satori_pattern_id_0" x="0" y="0" width="1" height="1" patternUnits="objectBoundingBox"><linearGradient id="satori_biid_0" x1="0" y1="0" x2="0" y2="1"><stop offset="0%" stop-color="#dbf4ff"></stop><stop offset="100%" stop-color="#fff1f1"></stop></linearGradient><rect x="0" y="0" width="800" height="400" fill="url(#satori_biid_0)"></rect></pattern></defs><mask id="satori_om-id"><rect x="0" y="0" width="800" height="400" fill="#fff"></rect></mask><rect x="0" y="0" width="800" height="400" fill="url(#satori_pattern_id_0)"></rect><clipPath id="satori_bct-id-0"><path d="M286.0 147.2L276.8 147.2L276.8 103.5L294.0 103.5Q299.0 103.5 302.5 105.4Q306.0 107.3 307.8 110.6Q309.6 114.0 309.6 118.3L309.6 118.3Q309.6 122.7 307.8 126.0Q305.9 129.3 302.4 131.2Q298.8 133.0 293.8 133.0L293.8 133.0L282.8 133.0L282.8 125.6L292.3 125.6Q294.9 125.6 296.7 124.7Q298.4 123.8 299.3 122.1Q300.1 120.5 300.1 118.3L300.1 118.3Q300.1 116.1 299.3 114.5Q298.4 112.9 296.7 112.0Q294.9 111.1 292.2 111.1L292.2 111.1L286.0 111.1L286.0 147.2ZM321.9 147.8L321.9 147.8Q318.8 147.8 316.4 146.7Q313.9 145.6 312.5 143.4Q311.1 141.3 311.1 138.0L311.1 138.0Q311.1 135.3 312.1 133.4Q313.1 131.6 314.8 130.5Q316.5 129.3 318.7 128.8Q320.9 128.2 323.4 127.9L323.4 127.9Q326.2 127.6 328.0 127.4Q329.7 127.1 330.5 126.6Q331.3 126.0 331.3 125.0L331.3 125.0L331.3 124.9Q331.3 122.8 330.0 121.7Q328.8 120.6 326.4 120.6L326.4 120.6Q324.0 120.6 322.5 121.7Q321.1 122.8 320.6 124.4L320.6 124.4L312.2 123.7Q312.9 120.7 314.7 118.6Q316.6 116.4 319.6 115.2Q322.6 114.0 326.5 114.0L326.5 114.0Q329.2 114.0 331.7 114.6Q334.2 115.3 336.2 116.6Q338.1 118.0 339.2 120.1Q340.4 122.2 340.4 125.1L340.4 125.1L340.4 147.2L331.8 147.2L331.8 142.6L331.5 142.6Q330.7 144.2 329.4 145.3Q328.1 146.5 326.2 147.1Q324.4 147.8 321.9 147.8ZM324.5 141.5L324.5 141.5Q326.5 141.5 328.1 140.7Q329.6 139.9 330.5 138.6Q331.4 137.2 331.4 135.5L331.4 135.5L331.4 132.0Q330.9 132.3 330.2 132.5Q329.5 132.7 328.5 132.9Q327.6 133.1 326.7 133.2Q325.8 133.4 325.1 133.5L325.1 133.5Q323.5 133.7 322.3 134.2Q321.1 134.7 320.4 135.6Q319.8 136.4 319.8 137.7L319.8 137.7Q319.8 139.6 321.1 140.5Q322.5 141.5 324.5 141.5ZM372.7 123.8L372.7 123.8L364.3 124.3Q364.1 123.2 363.4 122.3Q362.7 121.5 361.6 121.0Q360.4 120.4 358.9 120.4L358.9 120.4Q356.8 120.4 355.3 121.3Q353.9 122.2 353.9 123.7L353.9 123.7Q353.9 124.9 354.8 125.7Q355.7 126.5 358.0 127.0L358.0 127.0L363.9 128.2Q368.7 129.1 371.1 131.3Q373.4 133.5 373.4 137.0L373.4 137.0Q373.4 140.2 371.5 142.7Q369.6 145.1 366.4 146.4Q363.1 147.8 358.8 147.8L358.8 147.8Q352.3 147.8 348.5 145.1Q344.6 142.4 344.0 137.7L344.0 137.7L352.9 137.2Q353.3 139.2 354.9 140.2Q356.4 141.3 358.9 141.3L358.9 141.3Q361.2 141.3 362.7 140.3Q364.2 139.4 364.2 137.9L364.2 137.9Q364.2 136.7 363.1 135.9Q362.1 135.1 360.0 134.7L360.0 134.7L354.3 133.5Q349.5 132.6 347.2 130.2Q344.9 127.9 344.9 124.2L344.9 124.2Q344.9 121.0 346.6 118.8Q348.3 116.5 351.4 115.2Q354.5 114.0 358.7 114.0L358.7 114.0Q364.9 114.0 368.5 116.6Q372.1 119.2 372.7 123.8ZM374.8 114.4L394.5 114.4L394.5 121.3L374.8 121.3L374.8 114.4ZM379.3 138.3L379.3 106.6L388.4 106.6L388.4 137.1Q388.4 138.4 388.8 139.1Q389.2 139.7 389.8 140.0Q390.5 140.3 391.5 140.3L391.5 140.3Q392.1 140.3 392.7 140.2Q393.4 140.1 393.7 140.0L393.7 140.0L395.1 146.8Q394.5 147.0 393.2 147.3Q392.0 147.5 390.2 147.6L390.2 147.6Q386.9 147.7 384.5 146.7Q382.0 145.7 380.7 143.6Q379.3 141.5 379.3 138.3L379.3 138.3ZM413.0 147.8L413.0 147.8Q408.0 147.8 404.3 145.7Q400.7 143.7 398.7 139.9Q396.8 136.1 396.8 130.9L396.8 130.9Q396.8 125.9 398.7 122.1Q400.7 118.3 404.3 116.1Q407.8 114.0 412.7 114.0L412.7 114.0Q415.9 114.0 418.7 115.0Q421.5 116.1 423.6 118.1Q425.7 120.2 426.9 123.3Q428.0 126.5 428.0 130.6L428.0 130.6L428.0 133.1L400.4 133.1L400.4 127.5L419.5 127.5Q419.5 125.5 418.6 124.0Q417.8 122.5 416.3 121.6Q414.8 120.8 412.8 120.8L412.8 120.8Q410.7 120.8 409.2 121.7Q407.6 122.7 406.7 124.3Q405.8 125.9 405.8 127.8L405.8 127.8L405.8 133.1Q405.8 135.6 406.7 137.3Q407.6 139.1 409.2 140.1Q410.9 141.0 413.2 141.0L413.2 141.0Q414.7 141.0 415.9 140.6Q417.2 140.2 418.1 139.3Q419.0 138.5 419.5 137.2L419.5 137.2L427.8 137.8Q427.2 140.8 425.2 143.1Q423.3 145.3 420.2 146.6Q417.1 147.8 413.0 147.8ZM432.0 103.5L441.0 103.5L441.0 147.2L432.0 147.2L432.0 103.5ZM455.4 147.2L446.3 147.2L446.3 114.4L455.4 114.4L455.4 147.2ZM450.8 110.2L450.8 110.2Q448.8 110.2 447.4 108.9Q445.9 107.5 445.9 105.6L445.9 105.6Q445.9 103.7 447.4 102.4Q448.8 101.0 450.8 101.0L450.8 101.0Q452.9 101.0 454.3 102.4Q455.7 103.7 455.7 105.6L455.7 105.6Q455.7 107.5 454.3 108.9Q452.9 110.2 450.8 110.2ZM469.7 128.2L469.7 128.2L469.7 147.2L460.6 147.2L460.6 114.4L469.3 114.4L469.3 120.2L469.6 120.2Q470.7 117.4 473.3 115.7Q475.8 114.0 479.5 114.0L479.5 114.0Q482.9 114.0 485.4 115.5Q488.0 117.0 489.4 119.7Q490.8 122.5 490.8 126.3L490.8 126.3L490.8 147.2L481.7 147.2L481.7 127.9Q481.7 124.9 480.2 123.2Q478.6 121.5 475.9 121.5L475.9 121.5Q474.0 121.5 472.7 122.3Q471.3 123.1 470.5 124.6Q469.7 126.1 469.7 128.2ZM510.8 147.8L510.8 147.8Q505.8 147.8 502.1 145.7Q498.5 143.7 496.6 139.9Q494.6 136.1 494.6 130.9L494.6 130.9Q494.6 125.9 496.6 122.1Q498.5 118.3 502.1 116.1Q505.7 114.0 510.5 114.0L510.5 114.0Q513.7 114.0 516.5 115.0Q519.3 116.1 521.4 118.1Q523.5 120.2 524.7 123.3Q525.8 126.5 525.8 130.6L525.8 130.6L525.8 133.1L498.2 133.1L498.2 127.5L517.3 127.5Q517.3 125.5 516.5 124.0Q515.6 122.5 514.1 121.6Q512.6 120.8 510.6 120.8L510.6 120.8Q508.5 120.8 507.0 121.7Q505.4 122.7 504.5 124.3Q503.6 125.9 503.6 127.8L503.6 127.8L503.6 133.1Q503.6 135.6 504.5 137.3Q505.4 139.1 507.0 140.1Q508.7 141.0 511.0 141.0L511.0 141.0Q512.5 141.0 513.7 140.6Q515.0 140.2 515.9 139.3Q516.8 138.5 517.3 137.2L517.3 137.2L525.7 137.8Q525.0 140.8 523.0 143.1Q521.1 145.3 518.0 146.6Q514.9 147.8 510.8 147.8Z "></path></clipPath><defs><pattern id="satori_pattern_id-0_0" x="0" y="0" width="1" height="1" patternUnits="objectBoundingBox"><linearGradient id="satori_biid-0_0" x1="0" y1="0" x2="1" y2="0"><stop offset="0%" stop-color="rgb(0,124,240)"></stop><stop offset="100%" stop-color="rgb(0,223,216)"></stop></linearGradient><rect x="0" y="0" width="254" height="73" fill="url(#satori_biid-0_0)"></rect></pattern></defs><mask id="satori_om-id-0"><rect x="273" y="91" width="254" height="73" fill="#fff"></rect></mask><rect x="273" y="91" width="254" height="73" fill="url(#satori_pattern_id-0_0)" clip-path="url(#satori_bct-id-0)"></rect><clipPath id="satori_bct-id-1"><path d="M255.8 220.2L255.8 176.5L267.2 176.5L279.2 205.8L279.7 205.8L291.7 176.5L303.1 176.5L303.1 220.2L294.1 220.2L294.1 191.8L293.8 191.8L282.5 219.9L276.4 219.9L265.1 191.7L264.7 191.7L264.7 220.2L255.8 220.2ZM317.8 220.8L317.8 220.8Q314.7 220.8 312.3 219.7Q309.8 218.6 308.4 216.4Q307.0 214.3 307.0 211.0L307.0 211.0Q307.0 208.3 308.0 206.4Q309.0 204.6 310.7 203.5Q312.4 202.3 314.6 201.8Q316.8 201.2 319.3 200.9L319.3 200.9Q322.1 200.6 323.9 200.4Q325.6 200.1 326.4 199.6Q327.2 199.0 327.2 198.0L327.2 198.0L327.2 197.9Q327.2 195.8 325.9 194.7Q324.7 193.6 322.3 193.6L322.3 193.6Q319.9 193.6 318.4 194.7Q317.0 195.8 316.5 197.4L316.5 197.4L308.1 196.7Q308.8 193.7 310.6 191.6Q312.5 189.4 315.5 188.2Q318.5 187.0 322.4 187.0L322.4 187.0Q325.1 187.0 327.6 187.6Q330.1 188.3 332.1 189.6Q334.0 191.0 335.1 193.1Q336.3 195.2 336.3 198.1L336.3 198.1L336.3 220.2L327.7 220.2L327.7 215.6L327.4 215.6Q326.6 217.2 325.3 218.3Q324.0 219.5 322.1 220.1Q320.3 220.8 317.8 220.8ZM320.4 214.5L320.4 214.5Q322.4 214.5 324.0 213.7Q325.5 212.9 326.4 211.6Q327.3 210.2 327.3 208.5L327.3 208.5L327.3 205.0Q326.8 205.3 326.1 205.5Q325.4 205.7 324.4 205.9Q323.5 206.1 322.6 206.2Q321.7 206.4 321.0 206.5L321.0 206.5Q319.4 206.7 318.2 207.2Q317.0 207.7 316.3 208.6Q315.6 209.4 315.6 210.7L315.6 210.7Q315.6 212.6 317.0 213.5Q318.4 214.5 320.4 214.5ZM350.4 220.2L341.3 220.2L341.3 187.4L350.1 187.4L350.1 193.1L350.5 193.1Q351.4 190.1 353.5 188.5Q355.6 187.0 358.3 187.0L358.3 187.0Q359.0 187.0 359.8 187.0Q360.6 187.1 361.2 187.3L361.2 187.3L361.2 195.3Q360.5 195.1 359.4 195.0Q358.3 194.8 357.3 194.8L357.3 194.8Q355.3 194.8 353.8 195.7Q352.2 196.6 351.3 198.1Q350.4 199.6 350.4 201.6L350.4 201.6L350.4 220.2ZM378.1 203.9L372.1 210.7L372.1 199.9L373.4 199.9L383.9 187.4L394.3 187.4L380.2 203.9L378.1 203.9ZM372.9 220.2L363.8 220.2L363.8 176.5L372.9 176.5L372.9 220.2ZM394.9 220.2L384.3 220.2L374.7 205.9L380.7 199.5L394.9 220.2ZM407.4 220.7L407.4 220.7Q403.7 220.7 400.7 218.8Q397.7 216.8 395.9 213.1Q394.2 209.3 394.2 203.8L394.2 203.8Q394.2 198.2 396.0 194.5Q397.8 190.7 400.8 188.9Q403.8 187.0 407.4 187.0L407.4 187.0Q410.2 187.0 412.0 187.9Q413.9 188.9 415.0 190.2Q416.1 191.6 416.7 192.9L416.7 192.9L417.0 192.9L417.0 176.5L426.1 176.5L426.1 220.2L417.1 220.2L417.1 214.9L416.7 214.9Q416.1 216.3 414.9 217.6Q413.8 218.9 411.9 219.8Q410.1 220.7 407.4 220.7ZM410.3 213.5L410.3 213.5Q412.5 213.5 414.0 212.3Q415.6 211.1 416.4 208.9Q417.2 206.7 417.2 203.8L417.2 203.8Q417.2 200.9 416.4 198.7Q415.6 196.6 414.0 195.4Q412.5 194.2 410.3 194.2L410.3 194.2Q408.1 194.2 406.5 195.4Q405.0 196.7 404.2 198.8Q403.4 201.0 403.4 203.8L403.4 203.8Q403.4 206.7 404.2 208.8Q405.0 211.0 406.6 212.2Q408.1 213.5 410.3 213.5ZM446.3 220.8L446.3 220.8Q441.3 220.8 437.7 218.7Q434.1 216.6 432.1 212.8Q430.2 209.0 430.2 203.9L430.2 203.9Q430.2 198.9 432.1 195.1Q434.1 191.2 437.7 189.1Q441.3 187.0 446.3 187.0L446.3 187.0Q451.3 187.0 454.9 189.1Q458.5 191.2 460.4 195.1Q462.4 198.9 462.4 203.9L462.4 203.9Q462.4 209.0 460.4 212.8Q458.5 216.6 454.9 218.7Q451.3 220.8 446.3 220.8ZM446.3 213.8L446.3 213.8Q448.6 213.8 450.1 212.5Q451.6 211.2 452.4 209.0Q453.2 206.7 453.2 203.9L453.2 203.9Q453.2 201.0 452.4 198.8Q451.6 196.5 450.1 195.2Q448.6 193.9 446.3 193.9L446.3 193.9Q444.1 193.9 442.5 195.2Q441.0 196.5 440.2 198.8Q439.4 201.0 439.4 203.9L439.4 203.9Q439.4 206.7 440.2 209.0Q441.0 211.2 442.5 212.5Q444.1 213.8 446.3 213.8ZM481.6 220.2L472.0 220.2L463.1 187.4L472.2 187.4L477.3 209.4L477.6 209.4L482.9 187.4L491.9 187.4L497.3 209.3L497.6 209.3L502.5 187.4L511.7 187.4L502.8 220.2L493.2 220.2L487.6 199.6L487.2 199.6L481.6 220.2ZM523.6 201.2L523.6 201.2L523.6 220.2L514.5 220.2L514.5 187.4L523.2 187.4L523.2 193.2L523.6 193.2Q524.6 190.4 527.2 188.7Q529.8 187.0 533.4 187.0L533.4 187.0Q536.8 187.0 539.3 188.5Q541.9 190.0 543.3 192.7Q544.7 195.5 544.7 199.3L544.7 199.3L544.7 220.2L535.6 220.2L535.6 200.9Q535.6 197.9 534.1 196.2Q532.5 194.5 529.8 194.5L529.8 194.5Q528.0 194.5 526.6 195.3Q525.2 196.1 524.4 197.6Q523.6 199.1 523.6 201.2Z "></path></clipPath><defs><pattern id="satori_pattern_id-1_0" x="0" y="0" width="1" height="1" patternUnits="objectBoundingBox"><linearGradient id="satori_biid-1_0" x1="0" y1="0" x2="1" y2="0"><stop offset="0%" stop-color="rgb(121,40,202)"></stop><stop offset="100%" stop-color="rgb(255,0,128)"></stop></linearGradient><rect x="0" y="0" width="296" height="72" fill="url(#satori_biid-1_0)"></rect></pattern></defs><mask id="satori_om-id-1"><rect x="252" y="164" width="296" height="72" fill="#fff"></rect></mask><rect x="252" y="164" width="296" height="72" fill="url(#satori_pattern_id-1_0)" clip-path="url(#satori_bct-id-1)"></rect><clipPath id="satori_bct-id-2"><path d="M351.3 292.2L321.8 292.2L321.8 248.5L351.2 248.5L351.2 256.1L331.0 256.1L331.0 266.5L349.7 266.5L349.7 274.1L331.0 274.1L331.0 284.6L351.3 284.6L351.3 292.2ZM368.4 292.7L368.4 292.7Q364.7 292.7 361.7 290.8Q358.7 288.8 356.9 285.1Q355.2 281.3 355.2 275.8L355.2 275.8Q355.2 270.2 357.0 266.5Q358.8 262.7 361.8 260.9Q364.8 259.0 368.4 259.0L368.4 259.0Q371.2 259.0 373.0 259.9Q374.8 260.9 376.0 262.2Q377.1 263.6 377.7 264.9L377.7 264.9L378.0 264.9L378.0 248.5L387.1 248.5L387.1 292.2L378.1 292.2L378.1 286.9L377.7 286.9Q377.1 288.3 375.9 289.6Q374.8 290.9 372.9 291.8Q371.1 292.7 368.4 292.7ZM371.3 285.5L371.3 285.5Q373.5 285.5 375.0 284.3Q376.6 283.1 377.4 280.9Q378.2 278.7 378.2 275.8L378.2 275.8Q378.2 272.9 377.4 270.7Q376.6 268.6 375.0 267.4Q373.5 266.2 371.3 266.2L371.3 266.2Q369.1 266.2 367.5 267.4Q366.0 268.7 365.2 270.8Q364.4 273.0 364.4 275.8L364.4 275.8Q364.4 278.7 365.2 280.8Q366.0 283.0 367.6 284.2Q369.1 285.5 371.3 285.5ZM401.6 292.2L392.5 292.2L392.5 259.4L401.6 259.4L401.6 292.2ZM397.1 255.2L397.1 255.2Q395.0 255.2 393.6 253.9Q392.2 252.5 392.2 250.6L392.2 250.6Q392.2 248.7 393.6 247.4Q395.0 246.0 397.1 246.0L397.1 246.0Q399.1 246.0 400.5 247.4Q402.0 248.7 402.0 250.6L402.0 250.6Q402.0 252.5 400.5 253.9Q399.1 255.2 397.1 255.2ZM404.5 259.4L424.2 259.4L424.2 266.3L404.5 266.3L404.5 259.4ZM409.0 283.3L409.0 251.6L418.1 251.6L418.1 282.1Q418.1 283.4 418.4 284.1Q418.8 284.7 419.5 285.0Q420.2 285.3 421.1 285.3L421.1 285.3Q421.8 285.3 422.4 285.2Q423.1 285.1 423.4 285.0L423.4 285.0L424.8 291.8Q424.1 292.0 422.9 292.3Q421.7 292.5 419.9 292.6L419.9 292.6Q416.6 292.7 414.2 291.7Q411.7 290.7 410.3 288.6Q409.0 286.5 409.0 283.3L409.0 283.3ZM442.6 292.8L442.6 292.8Q437.6 292.8 434.0 290.7Q430.4 288.6 428.4 284.8Q426.5 281.0 426.5 275.9L426.5 275.9Q426.5 270.9 428.4 267.1Q430.4 263.2 434.0 261.1Q437.6 259.0 442.6 259.0L442.6 259.0Q447.5 259.0 451.1 261.1Q454.8 263.2 456.7 267.1Q458.7 270.9 458.7 275.9L458.7 275.9Q458.7 281.0 456.7 284.8Q454.8 288.6 451.1 290.7Q447.5 292.8 442.6 292.8ZM442.6 285.8L442.6 285.8Q444.9 285.8 446.4 284.5Q447.9 283.2 448.7 281.0Q449.5 278.7 449.5 275.9L449.5 275.9Q449.5 273.0 448.7 270.8Q447.9 268.5 446.4 267.2Q444.9 265.9 442.6 265.9L442.6 265.9Q440.3 265.9 438.8 267.2Q437.2 268.5 436.5 270.8Q435.7 273.0 435.7 275.9L435.7 275.9Q435.7 278.7 436.5 281.0Q437.2 283.2 438.8 284.5Q440.3 285.8 442.6 285.8ZM471.7 292.2L462.6 292.2L462.6 259.4L471.4 259.4L471.4 265.1L471.7 265.1Q472.6 262.1 474.7 260.5Q476.9 259.0 479.6 259.0L479.6 259.0Q480.3 259.0 481.1 259.0Q481.9 259.1 482.5 259.3L482.5 259.3L482.5 267.3Q481.8 267.1 480.7 267.0Q479.6 266.8 478.6 266.8L478.6 266.8Q476.6 266.8 475.1 267.7Q473.5 268.6 472.6 270.1Q471.7 271.6 471.7 273.6L471.7 273.6L471.7 292.2Z "></path></clipPath><defs><pattern id="satori_pattern_id-2_0" x="0" y="0" width="1" height="1" patternUnits="objectBoundingBox"><linearGradient id="satori_biid-2_0" x1="0" y1="0" x2="1" y2="0"><stop offset="0%" stop-color="rgb(255,77,77)"></stop><stop offset="100%" stop-color="rgb(249,203,40)"></stop></linearGradient><rect x="0" y="0" width="164" height="73" fill="url(#satori_biid-2_0)"></rect></pattern></defs><mask id="satori_om-id-2"><rect x="318" y="236" width="164" height="73" fill="#fff"></rect></mask><rect x="318" y="236" width="164" height="73" fill="url(#satori_pattern_id-2_0)" clip-path="url(#satori_bct-id-2)"></rect></svg>